# xmcd CD database file generated by MAGIX-FreeDB-PlayR v2.0beta1
# 
# Track frame offsets:
#      150
#      5339
#      20221
#      39808
#      66322
#      84983
#      111596
#      127109
#      147905
#      166112
#      179282
#      194662
#      208534
#      215454
#      233657
# 
# Disc length: 3238 seconds
# 
# Revision: 1 
# Processed by: cddbd v1.5.2PL0 Copyright (c) Steve Scherf et al.
# Submitted via: MAGIX-FreeDB-PlayR v2.0beta1
# 
DISCID=d40ca40f
DTITLE=Various Artist - Christmas Jazz Classics
DYEAR=1900
DGENRE=Jazz
TTITLE0=Various Artist - Intro
TTITLE1=Various Artist - Alle Jahre wieder
TTITLE2=Various Artist - God rest ye merry Gentleman
TTITLE3=Various Artist - Hark, the Herald Angels sing
TTITLE4=Various Artist - Macht hoch die Tür
TTITLE5=Various Artist - Jingle Bells
TTITLE6=Various Artist - Still, Still, Still
TTITLE7=Various Artist - Oh Du fröhliche
TTITLE8=Various Artist - The first Noel
TTITLE9=Various Artist - Ihr Kinderlein kommet
TTITLE10=Various Artist - Stille Nacht
TTITLE11=Various Artist - In dulci jubile
TTITLE12=Various Artist - zu Bethlehem geboren
TTITLE13=Various Artist - Vom Himmel hoch
TTITLE14=Various Artist - Outro
EXTD=
EXTT0=
EXTT1=
EXTT2=
EXTT3=
EXTT4=
EXTT5=
EXTT6=
EXTT7=
EXTT8=
EXTT9=
EXTT10=
EXTT11=
EXTT12=
EXTT13=
EXTT14=
PLAYORDER=
